<svg id="Layer_1" data-name="Layer 1" xmlns="http://www.w3.org/2000/svg" viewBox="0 0 510.86 458.5"><defs><style>.cls-1,.cls-2{fill:#231f20;}.cls-1{stroke:#f3cd05;stroke-miterlimit:10;stroke-width:6.26px;}.cls-3{fill:#f3cd05;}.cls-4{fill:#fff;}</style></defs><path class="cls-1" d="M458.3,526.11H141.7a94,94,0,0,1-94-94V167.87a94,94,0,0,1,94-94H458.3a94,94,0,0,1,94,94V432.11A94,94,0,0,1,458.3,526.11Z" transform="translate(-44.57 -70.74)"/><path class="cls-2" d="M147.11,476.8a50.06,50.06,0,0,1-50-50V173.2a50.06,50.06,0,0,1,50-50H452a50.06,50.06,0,0,1,50,50V426.8a50.06,50.06,0,0,1-50,50Z" transform="translate(-44.57 -70.74)"/><path class="cls-3" d="M452,126.2a47,47,0,0,1,47,47V426.8a47,47,0,0,1-47,47H147.11a47,47,0,0,1-47-47V173.2a47,47,0,0,1,47-47H452m0-6H147.11a53.07,53.07,0,0,0-53,53V426.8a53.07,53.07,0,0,0,53,53H452a53.07,53.07,0,0,0,53-53V173.2a53.07,53.07,0,0,0-53-53Z" transform="translate(-44.57 -70.74)"/><path class="cls-4" d="M176.35,307.15a16.13,16.13,0,0,1-2.94.18c-34.49,0-45.87-18.16-45.87-49.17V203.3c0-31.19,11.38-49.17,45.87-49.17s46.05,18,46.05,49.17v54.86c0,20.55-5.14,35.59-18.9,43.12,4.77,5,10.09,9.72,15.23,12.29l-7.89,20.37C200.2,330.82,184.24,319.44,176.35,307.15Zm5.88-39.81V194c0-6.42-.55-14.68-8.81-14.68-8.44,0-8.62,8.26-8.62,14.68v73.39c0,6.24.18,14.68,8.62,14.68C181.68,282,182.23,273.58,182.23,267.34Z" transform="translate(-44.57 -70.74)"/><path class="cls-4" d="M238.37,260V156.34h36.14v109.9c0,6.42.55,15.23,9,15.23s9-8.81,9-15.23V156.34h36.33V260c0,31.19-10.64,47.33-45.32,47.33S238.37,291.19,238.37,260Z" transform="translate(-44.57 -70.74)"/><path class="cls-4" d="M349.56,156.34h36.33V305H349.56Z" transform="translate(-44.57 -70.74)"/><path class="cls-4" d="M401.67,283.67l34.12-102.93H403v-24.4H471v21.28L436.71,280.73h34.86V305h-69.9Z" transform="translate(-44.57 -70.74)"/><polygon class="cls-2" points="164.15 236.98 152 262.87 166.1 267.78 175.59 243.23 164.15 236.98"/><path class="cls-3" d="M127.55,407.57l24.46-3.2c.15,16,3.78,19.65,8.44,19.65s4.8-4.37,4.8-7c0-9.61-4.8-15.43-13.1-22.42l-7.43-6.26c-9.32-7.86-17.18-17.18-17.18-32.17,0-20.67,13.39-31.88,34.65-31.88,27.08,0,29.12,22.57,29.26,34.36l-25,2.47c0-10.19-.15-16-5.24-16-3.93,0-5.39,5.39-5.39,8.15,0,9.17,5.24,14,12.52,20.38l6.84,6c10.48,9,18.63,19.36,18.63,36.11,0,16.45-12.08,30.14-31.59,30.14C139.34,445.86,128.28,435.53,127.55,407.57Z" transform="translate(-44.57 -70.74)"/><path class="cls-3" d="M295.85,406.85V363.32c0-24.75,9-39,36.4-39s36.54,14.27,36.54,39v43.53c0,24.6-9.17,39-36.54,39S295.85,431.45,295.85,406.85Zm43.38,7.28V355.9c0-5.1-.44-11.65-7-11.65-6.26,0-6.84,6.55-6.84,11.65v58.23c0,4.95.15,11.65,6.84,11.65S339.23,419.08,339.23,414.13Z" transform="translate(-44.57 -70.74)"/><path class="cls-3" d="M379.57,326.05H404l5.39,64.06,6.84-64.06h18.93l7.43,63.33,5.68-63.33h24.17L459.8,444H433.89l-8.15-66.53L418.32,444H392.26Z" transform="translate(-44.57 -70.74)"/><path class="cls-3" d="M207,326.05h28.83v46.73h14.7V326.05h29V444h-29V393.45h-14.7V444H207V326.05Z" transform="translate(-44.57 -70.74)"/><circle class="cls-3" cx="454.41" cy="41.85" r="11"/><circle class="cls-3" cx="454.41" cy="417.67" r="11"/><circle class="cls-3" cx="59.02" cy="41.85" r="11"/><circle class="cls-4" cx="255.89" cy="28.32" r="13.52"/><circle class="cls-4" cx="337.28" cy="28.32" r="13.52"/><circle class="cls-3" cx="296.59" cy="28.44" r="10.63"/><circle class="cls-4" cx="418.67" cy="28.32" r="13.52"/><circle class="cls-3" cx="377.98" cy="28.44" r="10.63"/><circle class="cls-4" cx="174.5" cy="28.32" r="13.52"/><circle class="cls-3" cx="133.81" cy="28.44" r="10.63"/><circle class="cls-4" cx="93.11" cy="28.32" r="13.52"/><circle class="cls-3" cx="215.2" cy="28.44" r="10.63"/><circle class="cls-4" cx="482.27" cy="229.25" r="13.52"/><circle class="cls-4" cx="482.27" cy="147.86" r="13.52"/><circle class="cls-3" cx="482.39" cy="188.56" r="10.63"/><circle class="cls-4" cx="521.15" cy="141.21" r="13.52" transform="matrix(0.38, -0.92, 0.92, 0.38, 146.68, 497.91)"/><circle class="cls-3" cx="482.39" cy="107.17" r="10.63"/><circle class="cls-4" cx="482.27" cy="310.64" r="13.52"/><circle class="cls-3" cx="482.39" cy="351.34" r="10.63"/><circle class="cls-4" cx="520.84" cy="459.78" r="13.52" transform="translate(-61 829.5) rotate(-80.78)"/><circle class="cls-3" cx="56.81" cy="417.67" r="11"/><circle class="cls-4" cx="34.95" cy="389.04" r="13.52"/><circle class="cls-3" cx="482.39" cy="269.95" r="10.63"/><circle class="cls-4" cx="71.66" cy="299.99" r="13.52" transform="translate(-275.12 290.89) rotate(-88.09)"/><circle class="cls-4" cx="27.09" cy="147.86" r="13.52"/><circle class="cls-3" cx="27.21" cy="188.56" r="10.63"/><circle class="cls-4" cx="34.09" cy="69.47" r="13.52"/><circle class="cls-3" cx="27.21" cy="107.17" r="10.63"/><circle class="cls-4" cx="71.66" cy="381.38" r="13.52" transform="translate(-356.47 369.57) rotate(-88.09)"/><circle class="cls-3" cx="27.21" cy="351.34" r="10.63"/><circle class="cls-3" cx="27.21" cy="269.95" r="10.63"/><circle class="cls-4" cx="255.89" cy="431.2" r="13.52"/><circle class="cls-4" cx="337.28" cy="431.2" r="13.52"/><circle class="cls-3" cx="296.59" cy="431.32" r="10.63"/><circle class="cls-4" cx="418.67" cy="431.2" r="13.52"/><circle class="cls-3" cx="377.98" cy="431.32" r="10.63"/><circle class="cls-4" cx="174.5" cy="431.2" r="13.52"/><circle class="cls-3" cx="133.81" cy="431.32" r="10.63"/><circle class="cls-4" cx="93.11" cy="431.2" r="13.52"/><circle class="cls-3" cx="215.2" cy="431.32" r="10.63"/></svg>